{
	"nodes":[{
		"name":"die_arm_left",
		"translation":[-99.83538055419922,
		211.49212646484376,
		-34.85404968261719],
		"children":[1,
		2],
		"rotation":[0.0,
		0.0,
		0.0,
		-1.0],
		"scale":[1.0,
		1.0,
		1.0]
	},
	{
		"name":"die_arm_left-Mat.1",
		"mesh":0
	},
	{
		"name":"die_arm_left-Mat",
		"mesh":1
	}],
	"asset":{
		"version":"2.0",
		"generator":"Created using the official Cinema 4D glTF Exporter 1.000x284978"
	},
	"scenes":[{
		"nodes":[0]
	}],
	"meshes":[{
		"name":"die_arm_left-Mat.1",
		"primitives":[{
			"attributes":{
				"POSITION":1,
				"NORMAL":2,
				"TEXCOORD_0":3
			},
			"indices":0,
			"material":0
		}]
	},
	{
		"name":"die_arm_left-Mat",
		"primitives":[{
			"attributes":{
				"POSITION":5,
				"NORMAL":6,
				"TEXCOORD_0":7
			},
			"indices":4,
			"material":1
		}]
	}],
	"accessors":[{
		"bufferView":0,
		"type":"SCALAR",
		"max":[131],
		"componentType":5123,
		"count":324,
		"byteOffset":0,
		"min":[0]
	},
	{
		"bufferView":1,
		"type":"VEC3",
		"max":[-8.954505920410157,
		-106.64380645751953,
		18.550514221191408],
		"componentType":5126,
		"count":132,
		"byteOffset":0,
		"min":[-70.4520492553711,
		-176.8646697998047,
		-31.44547462463379]
	},
	{
		"bufferView":1,
		"type":"VEC3",
		"max":[0.986750066280365,
		0.9981250762939453,
		0.9963750243186951],
		"componentType":5126,
		"count":132,
		"byteOffset":12,
		"min":[-0.9868125319480896,
		-0.9981250762939453,
		-0.991281270980835]
	},
	{
		"bufferView":1,
		"type":"VEC2",
		"max":[1.3180748224258423,
		1.2779016494750977],
		"componentType":5126,
		"count":132,
		"byteOffset":24,
		"min":[-0.3180748224258423,
		-0.2779017686843872]
	},
	{
		"bufferView":2,
		"type":"SCALAR",
		"max":[152],
		"componentType":5123,
		"count":432,
		"byteOffset":0,
		"min":[0]
	},
	{
		"bufferView":3,
		"type":"VEC3",
		"max":[41.78137969970703,
		24.606569290161134,
		38.559085845947269],
		"componentType":5126,
		"count":153,
		"byteOffset":0,
		"min":[-52.43145751953125,
		-127.36265563964844,
		-29.00048065185547]
	},
	{
		"bufferView":3,
		"type":"VEC3",
		"max":[0.9967188239097595,
		0.8921250700950623,
		0.9939063191413879],
		"componentType":5126,
		"count":153,
		"byteOffset":12,
		"min":[-0.9660313129425049,
		-0.9196875691413879,
		-0.9898750185966492]
	},
	{
		"bufferView":3,
		"type":"VEC2",
		"max":[1.0,
		1.0],
		"componentType":5126,
		"count":153,
		"byteOffset":24,
		"min":[0.0,
		0.0]
	}],
	"bufferViews":[{
		"buffer":0,
		"byteOffset":0,
		"byteLength":648,
		"target":34963
	},
	{
		"buffer":0,
		"byteOffset":648,
		"byteLength":4224,
		"target":34962,
		"byteStride":32
	},
	{
		"buffer":1,
		"byteOffset":0,
		"byteLength":864,
		"target":34963
	},
	{
		"buffer":1,
		"byteOffset":864,
		"byteLength":4896,
		"target":34962,
		"byteStride":32
	}],
	"buffers":[{
		"uri":"data:application/octet-stream;base64,",
		"byteLength":4872
	},
	{
		"uri":"data:application/octet-stream;base64,",
		"byteLength":5760
	}],
	"materials":[{
		"pbrMetallicRoughness":{
			"baseColorFactor":[0.21,
			0.21,
			0.21,
			1.0],
			"metallicFactor":0.0,
			"roughnessFactor":0.5
		},
		"emissiveFactor":[0.0,
		0.0,
		0.0],
		"alphaMode":"OPAQUE",
		"doubleSided":false,
		"name":"Mat.1"
	},
	{
		"pbrMetallicRoughness":{
			"baseColorFactor":[1.0,
			1.0,
			1.0,
			1.0],
			"metallicFactor":0.0,
			"roughnessFactor":0.5
		},
		"emissiveFactor":[0.0,
		0.0,
		0.0],
		"alphaMode":"OPAQUE",
		"doubleSided":false,
		"name":"Mat"
	}]
}