{
	"nodes":[{
		"name":"die_arm_down",
		"translation":[126.02423858642578,
		128.70826721191407,
		-37.519493103027347],
		"children":[1,
		2],
		"rotation":[0.0,
		0.0,
		0.0,
		-1.0],
		"scale":[1.0,
		1.0,
		1.0]
	},
	{
		"name":"die_arm_down-Mat.1",
		"mesh":0
	},
	{
		"name":"die_arm_down-Mat",
		"mesh":1
	}],
	"asset":{
		"version":"2.0",
		"generator":"Created using the official Cinema 4D glTF Exporter 1.000x284978"
	},
	"scenes":[{
		"nodes":[0]
	}],
	"meshes":[{
		"name":"die_arm_down-Mat.1",
		"primitives":[{
			"attributes":{
				"POSITION":1,
				"NORMAL":2,
				"TEXCOORD_0":3
			},
			"indices":0,
			"material":0
		}]
	},
	{
		"name":"die_arm_down-Mat",
		"primitives":[{
			"attributes":{
				"POSITION":5,
				"NORMAL":6,
				"TEXCOORD_0":7
			},
			"indices":4,
			"material":1
		}]
	}],
	"accessors":[{
		"bufferView":0,
		"type":"SCALAR",
		"max":[131],
		"componentType":5123,
		"count":324,
		"byteOffset":0,
		"min":[0]
	},
	{
		"bufferView":1,
		"type":"VEC3",
		"max":[56.17731857299805,
		-30.397396087646486,
		21.132244110107423],
		"componentType":5126,
		"count":132,
		"byteOffset":0,
		"min":[-8.49732494354248,
		-101.98418426513672,
		-33.496788024902347]
	},
	{
		"bufferView":1,
		"type":"VEC3",
		"max":[0.9930937886238098,
		0.9832813143730164,
		0.9979375600814819],
		"componentType":5126,
		"count":132,
		"byteOffset":12,
		"min":[-0.9935625195503235,
		-0.9832813143730164,
		-0.991812527179718]
	},
	{
		"bufferView":1,
		"type":"VEC2",
		"max":[1.3180748224258423,
		1.2779016494750977],
		"componentType":5126,
		"count":132,
		"byteOffset":24,
		"min":[-0.3180748224258423,
		-0.2779017686843872]
	},
	{
		"bufferView":2,
		"type":"SCALAR",
		"max":[152],
		"componentType":5123,
		"count":432,
		"byteOffset":0,
		"min":[0]
	},
	{
		"bufferView":3,
		"type":"VEC3",
		"max":[37.19050979614258,
		107.59512329101563,
		35.107852935791019],
		"componentType":5126,
		"count":153,
		"byteOffset":0,
		"min":[-61.0010986328125,
		-51.4027214050293,
		-29.95566749572754]
	},
	{
		"bufferView":3,
		"type":"VEC3",
		"max":[0.9615625739097595,
		0.8998438119888306,
		0.9986875653266907],
		"componentType":5126,
		"count":153,
		"byteOffset":12,
		"min":[-0.9939063191413879,
		-0.9106875658035278,
		-0.9982187747955322]
	},
	{
		"bufferView":3,
		"type":"VEC2",
		"max":[1.0,
		1.0],
		"componentType":5126,
		"count":153,
		"byteOffset":24,
		"min":[0.0,
		0.0]
	}],
	"bufferViews":[{
		"buffer":0,
		"byteOffset":0,
		"byteLength":648,
		"target":34963
	},
	{
		"buffer":0,
		"byteOffset":648,
		"byteLength":4224,
		"target":34962,
		"byteStride":32
	},
	{
		"buffer":1,
		"byteOffset":0,
		"byteLength":864,
		"target":34963
	},
	{
		"buffer":1,
		"byteOffset":864,
		"byteLength":4896,
		"target":34962,
		"byteStride":32
	}],
	"buffers":[{
		"uri":"data:application/octet-stream;base64,",
		"byteLength":4872
	},
	{
		"uri":"data:application/octet-stream;base64,",
		"byteLength":5760
	}],
	"materials":[{
		"pbrMetallicRoughness":{
			"baseColorFactor":[0.21,
			0.21,
			0.21,
			1.0],
			"metallicFactor":0.0,
			"roughnessFactor":0.5
		},
		"emissiveFactor":[0.0,
		0.0,
		0.0],
		"alphaMode":"OPAQUE",
		"doubleSided":false,
		"name":"Mat.1"
	},
	{
		"pbrMetallicRoughness":{
			"baseColorFactor":[1.0,
			1.0,
			1.0,
			1.0],
			"metallicFactor":0.0,
			"roughnessFactor":0.5
		},
		"emissiveFactor":[0.0,
		0.0,
		0.0],
		"alphaMode":"OPAQUE",
		"doubleSided":false,
		"name":"Mat"
	}]
}