{
	"nodes":[{
		"name":"die_eyes",
		"translation":[44.35837936401367,
		227.8211669921875,
		-101.73664855957031],
		"children":[1,
		2],
		"rotation":[0.0,
		0.0,
		0.0,
		-1.0],
		"scale":[1.0,
		1.0,
		1.0]
	},
	{
		"name":"die_eyes-Mat",
		"mesh":0
	},
	{
		"name":"die_eyes-Mat.1",
		"mesh":1
	}],
	"asset":{
		"version":"2.0",
		"generator":"Created using the official Cinema 4D glTF Exporter 1.000x284978"
	},
	"scenes":[{
		"nodes":[0]
	}],
	"meshes":[{
		"name":"die_eyes-Mat",
		"primitives":[{
			"attributes":{
				"POSITION":1,
				"NORMAL":2,
				"TEXCOORD_0":3
			},
			"indices":0,
			"material":0
		}]
	},
	{
		"name":"die_eyes-Mat.1",
		"primitives":[{
			"attributes":{
				"POSITION":5,
				"NORMAL":6,
				"TEXCOORD_0":7
			},
			"indices":4,
			"material":1
		}]
	}],
	"accessors":[{
		"bufferView":0,
		"type":"SCALAR",
		"max":[221],
		"componentType":5123,
		"count":744,
		"byteOffset":0,
		"min":[0]
	},
	{
		"bufferView":1,
		"type":"VEC3",
		"max":[43.295326232910159,
		33.445796966552737,
		10.943076133728028],
		"componentType":5126,
		"count":222,
		"byteOffset":0,
		"min":[-132.0120849609375,
		-29.963653564453126,
		-9.68210506439209]
	},
	{
		"bufferView":1,
		"type":"VEC3",
		"max":[0.9988750219345093,
		0.9624375700950623,
		1.0],
		"componentType":5126,
		"count":222,
		"byteOffset":12,
		"min":[-0.9988750219345093,
		-0.9999688267707825,
		-1.0]
	},
	{
		"bufferView":1,
		"type":"VEC2",
		"max":[1.2580667734146119,
		1.2657153606414796],
		"componentType":5126,
		"count":222,
		"byteOffset":24,
		"min":[-0.23669058084487916,
		-0.2406344711780548]
	},
	{
		"bufferView":2,
		"type":"SCALAR",
		"max":[181],
		"componentType":5123,
		"count":648,
		"byteOffset":0,
		"min":[0]
	},
	{
		"bufferView":3,
		"type":"VEC3",
		"max":[15.109334945678711,
		23.120141983032228,
		6.498089790344238],
		"componentType":5126,
		"count":182,
		"byteOffset":0,
		"min":[-103.82608795166016,
		-25.005624771118165,
		-16.06995391845703]
	},
	{
		"bufferView":3,
		"type":"VEC3",
		"max":[0.9998750686645508,
		0.9853125214576721,
		1.0],
		"componentType":5126,
		"count":182,
		"byteOffset":12,
		"min":[-0.9998750686645508,
		-0.9954062700271606,
		-0.9989063143730164]
	},
	{
		"bufferView":3,
		"type":"VEC2",
		"max":[1.0,
		1.0],
		"componentType":5126,
		"count":182,
		"byteOffset":24,
		"min":[0.0,
		0.0]
	}],
	"bufferViews":[{
		"buffer":0,
		"byteOffset":0,
		"byteLength":1488,
		"target":34963
	},
	{
		"buffer":0,
		"byteOffset":1488,
		"byteLength":7104,
		"target":34962,
		"byteStride":32
	},
	{
		"buffer":1,
		"byteOffset":0,
		"byteLength":1296,
		"target":34963
	},
	{
		"buffer":1,
		"byteOffset":1296,
		"byteLength":5824,
		"target":34962,
		"byteStride":32
	}],
	"buffers":[{
		"uri":"data:application/octet-stream;base64,",
		"byteLength":8592
	},
	{
		"uri":"data:application/octet-stream;base64,",
		"byteLength":7120
	}],
	"materials":[{
		"pbrMetallicRoughness":{
			"baseColorFactor":[1.0,
			1.0,
			1.0,
			1.0],
			"metallicFactor":0.0,
			"roughnessFactor":0.5
		},
		"emissiveFactor":[0.0,
		0.0,
		0.0],
		"alphaMode":"OPAQUE",
		"doubleSided":false,
		"name":"Mat"
	},
	{
		"pbrMetallicRoughness":{
			"baseColorFactor":[0.21,
			0.21,
			0.21,
			1.0],
			"metallicFactor":0.0,
			"roughnessFactor":0.5
		},
		"emissiveFactor":[0.0,
		0.0,
		0.0],
		"alphaMode":"OPAQUE",
		"doubleSided":false,
		"name":"Mat.1"
	}]
}