{
	"nodes":[{
		"name":"die_arm_bullet",
		"translation":[100.02664947509766,
		209.15399169921876,
		-37.78634262084961],
		"children":[1,
		2,
		3],
		"rotation":[0.0,
		0.0,
		0.0,
		-1.0],
		"scale":[1.0,
		1.0,
		1.0]
	},
	{
		"name":"die_arm_bullet-Mat.2",
		"mesh":0
	},
	{
		"name":"die_arm_bullet-Mat",
		"mesh":1
	},
	{
		"name":"die_arm_bullet-Mat.1",
		"mesh":2
	}],
	"asset":{
		"version":"2.0",
		"generator":"Created using the official Cinema 4D glTF Exporter 1.000x284978"
	},
	"scenes":[{
		"nodes":[0]
	}],
	"meshes":[{
		"name":"die_arm_bullet-Mat.2",
		"primitives":[{
			"attributes":{
				"POSITION":1,
				"NORMAL":2,
				"TEXCOORD_0":3
			},
			"indices":0,
			"material":0
		}]
	},
	{
		"name":"die_arm_bullet-Mat",
		"primitives":[{
			"attributes":{
				"POSITION":5,
				"NORMAL":6,
				"TEXCOORD_0":7
			},
			"indices":4,
			"material":1
		}]
	},
	{
		"name":"die_arm_bullet-Mat.1",
		"primitives":[{
			"attributes":{
				"POSITION":9,
				"NORMAL":10,
				"TEXCOORD_0":11
			},
			"indices":8,
			"material":2
		}]
	}],
	"accessors":[{
		"bufferView":0,
		"type":"SCALAR",
		"max":[461],
		"componentType":5123,
		"count":1308,
		"byteOffset":0,
		"min":[0]
	},
	{
		"bufferView":1,
		"type":"VEC3",
		"max":[108.4918441772461,
		37.7974967956543,
		-24.857521057128908],
		"componentType":5126,
		"count":462,
		"byteOffset":0,
		"min":[21.06205940246582,
		-136.88623046875,
		-260.7238464355469]
	},
	{
		"bufferView":1,
		"type":"VEC3",
		"max":[1.0,
		1.0,
		1.0],
		"componentType":5126,
		"count":462,
		"byteOffset":12,
		"min":[-1.0,
		-1.0,
		-1.0]
	},
	{
		"bufferView":1,
		"type":"VEC2",
		"max":[1.1080007553100587,
		1.110046148300171],
		"componentType":5126,
		"count":462,
		"byteOffset":24,
		"min":[-0.10800080001354218,
		-0.11004604399204254]
	},
	{
		"bufferView":2,
		"type":"SCALAR",
		"max":[154],
		"componentType":5123,
		"count":432,
		"byteOffset":0,
		"min":[0]
	},
	{
		"bufferView":3,
		"type":"VEC3",
		"max":[97.55560302734375,
		29.29789924621582,
		33.367515563964847],
		"componentType":5126,
		"count":155,
		"byteOffset":0,
		"min":[-43.233909606933597,
		-109.841064453125,
		-111.28865814208985]
	},
	{
		"bufferView":3,
		"type":"VEC3",
		"max":[0.8849688172340393,
		0.9079688191413879,
		0.9978125691413879],
		"componentType":5126,
		"count":155,
		"byteOffset":12,
		"min":[-0.8733437657356262,
		-0.8777812719345093,
		-0.9998437762260437]
	},
	{
		"bufferView":3,
		"type":"VEC2",
		"max":[1.0,
		1.0],
		"componentType":5126,
		"count":155,
		"byteOffset":24,
		"min":[0.0,
		0.0]
	},
	{
		"bufferView":4,
		"type":"SCALAR",
		"max":[128],
		"componentType":5123,
		"count":324,
		"byteOffset":0,
		"min":[0]
	},
	{
		"bufferView":5,
		"type":"VEC3",
		"max":[97.67121124267578,
		-48.450294494628909,
		-93.54965209960938],
		"componentType":5126,
		"count":129,
		"byteOffset":0,
		"min":[27.889575958251954,
		-107.13639831542969,
		-149.8388671875]
	},
	{
		"bufferView":5,
		"type":"VEC3",
		"max":[0.9896250367164612,
		0.995093822479248,
		0.9985625743865967],
		"componentType":5126,
		"count":129,
		"byteOffset":12,
		"min":[-0.9847813248634338,
		-0.9786875247955322,
		-0.9985625743865967]
	},
	{
		"bufferView":5,
		"type":"VEC2",
		"max":[1.3180748224258423,
		1.2779016494750977],
		"componentType":5126,
		"count":129,
		"byteOffset":24,
		"min":[-0.3180748224258423,
		-0.2779017686843872]
	}],
	"bufferViews":[{
		"buffer":0,
		"byteOffset":0,
		"byteLength":2616,
		"target":34963
	},
	{
		"buffer":0,
		"byteOffset":2616,
		"byteLength":14784,
		"target":34962,
		"byteStride":32
	},
	{
		"buffer":1,
		"byteOffset":0,
		"byteLength":864,
		"target":34963
	},
	{
		"buffer":1,
		"byteOffset":864,
		"byteLength":4960,
		"target":34962,
		"byteStride":32
	},
	{
		"buffer":2,
		"byteOffset":0,
		"byteLength":648,
		"target":34963
	},
	{
		"buffer":2,
		"byteOffset":648,
		"byteLength":4128,
		"target":34962,
		"byteStride":32
	}],
	"buffers":[{
		"uri":"data:application/octet-stream;base64,",
		"byteLength":17400
	},
	{
		"uri":"data:application/octet-stream;base64,",
		"byteLength":5824
	},
	{
		"uri":"data:application/octet-stream;base64,",
		"byteLength":4776
	}],
	"materials":[{
		"pbrMetallicRoughness":{
			"baseColorFactor":[0.025999999999999969,
			0.52,
			0.025999999999999969,
			1.0],
			"metallicFactor":0.0,
			"roughnessFactor":0.5
		},
		"emissiveFactor":[0.0,
		0.0,
		0.0],
		"alphaMode":"OPAQUE",
		"doubleSided":false,
		"name":"Mat.2"
	},
	{
		"pbrMetallicRoughness":{
			"baseColorFactor":[1.0,
			1.0,
			1.0,
			1.0],
			"metallicFactor":0.0,
			"roughnessFactor":0.5
		},
		"emissiveFactor":[0.0,
		0.0,
		0.0],
		"alphaMode":"OPAQUE",
		"doubleSided":false,
		"name":"Mat"
	},
	{
		"pbrMetallicRoughness":{
			"baseColorFactor":[0.21,
			0.21,
			0.21,
			1.0],
			"metallicFactor":0.0,
			"roughnessFactor":0.5
		},
		"emissiveFactor":[0.0,
		0.0,
		0.0],
		"alphaMode":"OPAQUE",
		"doubleSided":false,
		"name":"Mat.1"
	}]
}