{
	"nodes":[{
		"name":"die_leg_right",
		"translation":[-56.26097106933594,
		85.42082977294922,
		13.854623794555664],
		"children":[1,
		2],
		"rotation":[0.0,
		0.0,
		0.0,
		-1.0],
		"scale":[1.0,
		1.0,
		1.0]
	},
	{
		"name":"die_leg_right-Mat.1",
		"mesh":0
	},
	{
		"name":"die_leg_right-Mat",
		"mesh":1
	}],
	"asset":{
		"version":"2.0",
		"generator":"Created using the official Cinema 4D glTF Exporter 1.000x284978"
	},
	"scenes":[{
		"nodes":[0]
	}],
	"meshes":[{
		"name":"die_leg_right-Mat.1",
		"primitives":[{
			"attributes":{
				"POSITION":1,
				"NORMAL":2,
				"TEXCOORD_0":3
			},
			"indices":0,
			"material":0
		}]
	},
	{
		"name":"die_leg_right-Mat",
		"primitives":[{
			"attributes":{
				"POSITION":5,
				"NORMAL":6,
				"TEXCOORD_0":7
			},
			"indices":4,
			"material":1
		}]
	}],
	"accessors":[{
		"bufferView":0,
		"type":"SCALAR",
		"max":[135],
		"componentType":5123,
		"count":516,
		"byteOffset":0,
		"min":[0]
	},
	{
		"bufferView":1,
		"type":"VEC3",
		"max":[54.291290283203128,
		-40.152191162109378,
		87.29258728027344],
		"componentType":5126,
		"count":136,
		"byteOffset":0,
		"min":[-64.1204833984375,
		-83.5941390991211,
		-113.35686492919922]
	},
	{
		"bufferView":1,
		"type":"VEC3",
		"max":[0.9947500228881836,
		1.0,
		0.9823125600814819],
		"componentType":5126,
		"count":136,
		"byteOffset":12,
		"min":[-0.9863125681877136,
		-1.0,
		-0.9835938215255737]
	},
	{
		"bufferView":1,
		"type":"VEC2",
		"max":[1.462688684463501,
		1.1038832664489747],
		"componentType":5126,
		"count":136,
		"byteOffset":24,
		"min":[-0.642300546169281,
		-0.03834600746631622]
	},
	{
		"bufferView":2,
		"type":"SCALAR",
		"max":[41],
		"componentType":5123,
		"count":96,
		"byteOffset":0,
		"min":[0]
	},
	{
		"bufferView":3,
		"type":"VEC3",
		"max":[20.345998764038087,
		6.9682793617248539,
		34.22577667236328],
		"componentType":5126,
		"count":42,
		"byteOffset":0,
		"min":[-20.66176986694336,
		-66.62225341796875,
		-10.969964981079102]
	},
	{
		"bufferView":3,
		"type":"VEC3",
		"max":[0.9998750686645508,
		1.0,
		0.9998750686645508],
		"componentType":5126,
		"count":42,
		"byteOffset":12,
		"min":[-0.9998750686645508,
		-1.0,
		-0.9998750686645508]
	},
	{
		"bufferView":3,
		"type":"VEC2",
		"max":[1.0,
		1.0],
		"componentType":5126,
		"count":42,
		"byteOffset":24,
		"min":[0.0,
		0.0]
	}],
	"bufferViews":[{
		"buffer":0,
		"byteOffset":0,
		"byteLength":1032,
		"target":34963
	},
	{
		"buffer":0,
		"byteOffset":1032,
		"byteLength":4352,
		"target":34962,
		"byteStride":32
	},
	{
		"buffer":1,
		"byteOffset":0,
		"byteLength":192,
		"target":34963
	},
	{
		"buffer":1,
		"byteOffset":192,
		"byteLength":1344,
		"target":34962,
		"byteStride":32
	}],
	"buffers":[{
		"uri":"data:application/octet-stream;base64,",
		"byteLength":5384
	},
	{
		"uri":"data:application/octet-stream;base64,",
		"byteLength":1536
	}],
	"materials":[{
		"pbrMetallicRoughness":{
			"baseColorFactor":[0.21,
			0.21,
			0.21,
			1.0],
			"metallicFactor":0.0,
			"roughnessFactor":0.5
		},
		"emissiveFactor":[0.0,
		0.0,
		0.0],
		"alphaMode":"OPAQUE",
		"doubleSided":false,
		"name":"Mat.1"
	},
	{
		"pbrMetallicRoughness":{
			"baseColorFactor":[1.0,
			1.0,
			1.0,
			1.0],
			"metallicFactor":0.0,
			"roughnessFactor":0.5
		},
		"emissiveFactor":[0.0,
		0.0,
		0.0],
		"alphaMode":"OPAQUE",
		"doubleSided":false,
		"name":"Mat"
	}]
}