{
	"nodes":[{
		"name":"die_arm_laser",
		"translation":[98.98993682861328,
		210.2141571044922,
		-33.102474212646487],
		"children":[1,
		2,
		3],
		"rotation":[0.0,
		0.0,
		0.0,
		-1.0],
		"scale":[1.0,
		1.0,
		1.0]
	},
	{
		"name":"die_arm_laser-Mat",
		"mesh":0
	},
	{
		"name":"die_arm_laser-Mat.1",
		"mesh":1
	},
	{
		"name":"die_arm_laser-Mat.3",
		"mesh":2
	}],
	"asset":{
		"version":"2.0",
		"generator":"Created using the official Cinema 4D glTF Exporter 1.000x284978"
	},
	"scenes":[{
		"nodes":[0]
	}],
	"meshes":[{
		"name":"die_arm_laser-Mat",
		"primitives":[{
			"attributes":{
				"POSITION":1,
				"NORMAL":2,
				"TEXCOORD_0":3
			},
			"indices":0,
			"material":0
		}]
	},
	{
		"name":"die_arm_laser-Mat.1",
		"primitives":[{
			"attributes":{
				"POSITION":5,
				"NORMAL":6,
				"TEXCOORD_0":7
			},
			"indices":4,
			"material":1
		}]
	},
	{
		"name":"die_arm_laser-Mat.3",
		"primitives":[{
			"attributes":{
				"POSITION":9,
				"NORMAL":10,
				"TEXCOORD_0":11
			},
			"indices":8,
			"material":2
		}]
	}],
	"accessors":[{
		"bufferView":0,
		"type":"SCALAR",
		"max":[154],
		"componentType":5123,
		"count":432,
		"byteOffset":0,
		"min":[0]
	},
	{
		"bufferView":1,
		"type":"VEC3",
		"max":[98.59232330322266,
		28.237735748291017,
		28.68364715576172],
		"componentType":5126,
		"count":155,
		"byteOffset":0,
		"min":[-42.19719696044922,
		-110.9012222290039,
		-115.97252655029297]
	},
	{
		"bufferView":1,
		"type":"VEC3",
		"max":[0.8849688172340393,
		0.9079688191413879,
		0.9978125691413879],
		"componentType":5126,
		"count":155,
		"byteOffset":12,
		"min":[-0.8733437657356262,
		-0.8777812719345093,
		-0.9998437762260437]
	},
	{
		"bufferView":1,
		"type":"VEC2",
		"max":[1.0,
		1.0],
		"componentType":5126,
		"count":155,
		"byteOffset":24,
		"min":[0.0,
		0.0]
	},
	{
		"bufferView":2,
		"type":"SCALAR",
		"max":[128],
		"componentType":5123,
		"count":324,
		"byteOffset":0,
		"min":[0]
	},
	{
		"bufferView":3,
		"type":"VEC3",
		"max":[98.70792388916016,
		-49.51045608520508,
		-98.2335205078125],
		"componentType":5126,
		"count":129,
		"byteOffset":0,
		"min":[28.92629051208496,
		-108.19656372070313,
		-154.52273559570313]
	},
	{
		"bufferView":3,
		"type":"VEC3",
		"max":[0.9896250367164612,
		0.995093822479248,
		0.9985625743865967],
		"componentType":5126,
		"count":129,
		"byteOffset":12,
		"min":[-0.9847813248634338,
		-0.9786875247955322,
		-0.9985625743865967]
	},
	{
		"bufferView":3,
		"type":"VEC2",
		"max":[1.3180748224258423,
		1.2779016494750977],
		"componentType":5126,
		"count":129,
		"byteOffset":24,
		"min":[-0.3180748224258423,
		-0.2779017686843872]
	},
	{
		"bufferView":4,
		"type":"SCALAR",
		"max":[297],
		"componentType":5123,
		"count":924,
		"byteOffset":0,
		"min":[0]
	},
	{
		"bufferView":5,
		"type":"VEC3",
		"max":[175.11465454101563,
		100.73725891113281,
		171.47401428222657],
		"componentType":5126,
		"count":298,
		"byteOffset":0,
		"min":[-103.74605560302735,
		-58.87595748901367,
		-325.6133728027344]
	},
	{
		"bufferView":5,
		"type":"VEC3",
		"max":[1.0,
		0.9998750686645508,
		1.0],
		"componentType":5126,
		"count":298,
		"byteOffset":12,
		"min":[-1.0,
		-0.9994375705718994,
		-1.0]
	},
	{
		"bufferView":5,
		"type":"VEC2",
		"max":[1.0,
		1.0],
		"componentType":5126,
		"count":298,
		"byteOffset":24,
		"min":[0.0,
		0.0]
	}],
	"bufferViews":[{
		"buffer":0,
		"byteOffset":0,
		"byteLength":864,
		"target":34963
	},
	{
		"buffer":0,
		"byteOffset":864,
		"byteLength":4960,
		"target":34962,
		"byteStride":32
	},
	{
		"buffer":1,
		"byteOffset":0,
		"byteLength":648,
		"target":34963
	},
	{
		"buffer":1,
		"byteOffset":648,
		"byteLength":4128,
		"target":34962,
		"byteStride":32
	},
	{
		"buffer":2,
		"byteOffset":0,
		"byteLength":1848,
		"target":34963
	},
	{
		"buffer":2,
		"byteOffset":1848,
		"byteLength":9536,
		"target":34962,
		"byteStride":32
	}],
	"buffers":[{
		"uri":"data:application/octet-stream;base64,",
		"byteLength":5824
	},
	{
		"uri":"data:application/octet-stream;base64,",
		"byteLength":4776
	},
	{
		"uri":"data:application/octet-stream;base64,",
		"byteLength":11384
	}],
	"materials":[{
		"pbrMetallicRoughness":{
			"baseColorFactor":[1.0,
			1.0,
			1.0,
			1.0],
			"metallicFactor":0.0,
			"roughnessFactor":0.5
		},
		"emissiveFactor":[0.0,
		0.0,
		0.0],
		"alphaMode":"OPAQUE",
		"doubleSided":false,
		"name":"Mat"
	},
	{
		"pbrMetallicRoughness":{
			"baseColorFactor":[0.21,
			0.21,
			0.21,
			1.0],
			"metallicFactor":0.0,
			"roughnessFactor":0.5
		},
		"emissiveFactor":[0.0,
		0.0,
		0.0],
		"alphaMode":"OPAQUE",
		"doubleSided":false,
		"name":"Mat.1"
	},
	{
		"pbrMetallicRoughness":{
			"baseColorFactor":[0.24149999999999995,
			0.24897499999999993,
			0.6900000000000001,
			1.0],
			"metallicFactor":0.0,
			"roughnessFactor":0.5
		},
		"emissiveFactor":[0.0,
		0.0,
		0.0],
		"alphaMode":"OPAQUE",
		"doubleSided":false,
		"name":"Mat.3"
	}]
}