{
	"nodes":[{
		"name":"die_leg_left",
		"translation":[56.182247161865237,
		88.32748413085938,
		24.872224807739259],
		"children":[1,
		2],
		"rotation":[0.0,
		0.0,
		0.0,
		-1.0],
		"scale":[1.0,
		1.0,
		1.0]
	},
	{
		"name":"die_leg_left-Mat.1",
		"mesh":0
	},
	{
		"name":"die_leg_left-Mat",
		"mesh":1
	}],
	"asset":{
		"version":"2.0",
		"generator":"Created using the official Cinema 4D glTF Exporter 1.000x284978"
	},
	"scenes":[{
		"nodes":[0]
	}],
	"meshes":[{
		"name":"die_leg_left-Mat.1",
		"primitives":[{
			"attributes":{
				"POSITION":1,
				"NORMAL":2,
				"TEXCOORD_0":3
			},
			"indices":0,
			"material":0
		}]
	},
	{
		"name":"die_leg_left-Mat",
		"primitives":[{
			"attributes":{
				"POSITION":5,
				"NORMAL":6,
				"TEXCOORD_0":7
			},
			"indices":4,
			"material":1
		}]
	}],
	"accessors":[{
		"bufferView":0,
		"type":"SCALAR",
		"max":[135],
		"componentType":5123,
		"count":516,
		"byteOffset":0,
		"min":[0]
	},
	{
		"bufferView":1,
		"type":"VEC3",
		"max":[64.19920349121094,
		-43.0588493347168,
		76.27498626708985],
		"componentType":5126,
		"count":136,
		"byteOffset":0,
		"min":[-54.21257019042969,
		-86.50079345703125,
		-124.37446594238281]
	},
	{
		"bufferView":1,
		"type":"VEC3",
		"max":[0.9863125681877136,
		1.0,
		0.9823125600814819],
		"componentType":5126,
		"count":136,
		"byteOffset":12,
		"min":[-0.9947500228881836,
		-1.0,
		-0.9835938215255737]
	},
	{
		"bufferView":1,
		"type":"VEC2",
		"max":[1.462688684463501,
		1.1038832664489747],
		"componentType":5126,
		"count":136,
		"byteOffset":24,
		"min":[-0.642300546169281,
		-0.03834600746631622]
	},
	{
		"bufferView":2,
		"type":"SCALAR",
		"max":[41],
		"componentType":5123,
		"count":96,
		"byteOffset":0,
		"min":[0]
	},
	{
		"bufferView":3,
		"type":"VEC3",
		"max":[20.740489959716798,
		4.061619758605957,
		23.208175659179689],
		"componentType":5126,
		"count":42,
		"byteOffset":0,
		"min":[-20.26727867126465,
		-69.52891540527344,
		-21.987565994262697]
	},
	{
		"bufferView":3,
		"type":"VEC3",
		"max":[0.9998750686645508,
		1.0,
		0.9998750686645508],
		"componentType":5126,
		"count":42,
		"byteOffset":12,
		"min":[-0.9998750686645508,
		-1.0,
		-0.9998750686645508]
	},
	{
		"bufferView":3,
		"type":"VEC2",
		"max":[1.0,
		1.0],
		"componentType":5126,
		"count":42,
		"byteOffset":24,
		"min":[0.0,
		0.0]
	}],
	"bufferViews":[{
		"buffer":0,
		"byteOffset":0,
		"byteLength":1032,
		"target":34963
	},
	{
		"buffer":0,
		"byteOffset":1032,
		"byteLength":4352,
		"target":34962,
		"byteStride":32
	},
	{
		"buffer":1,
		"byteOffset":0,
		"byteLength":192,
		"target":34963
	},
	{
		"buffer":1,
		"byteOffset":192,
		"byteLength":1344,
		"target":34962,
		"byteStride":32
	}],
	"buffers":[{
		"uri":"data:application/octet-stream;base64,",
		"byteLength":5384
	},
	{
		"uri":"data:application/octet-stream;base64,",
		"byteLength":1536
	}],
	"materials":[{
		"pbrMetallicRoughness":{
			"baseColorFactor":[0.21,
			0.21,
			0.21,
			1.0],
			"metallicFactor":0.0,
			"roughnessFactor":0.5
		},
		"emissiveFactor":[0.0,
		0.0,
		0.0],
		"alphaMode":"OPAQUE",
		"doubleSided":false,
		"name":"Mat.1"
	},
	{
		"pbrMetallicRoughness":{
			"baseColorFactor":[1.0,
			1.0,
			1.0,
			1.0],
			"metallicFactor":0.0,
			"roughnessFactor":0.5
		},
		"emissiveFactor":[0.0,
		0.0,
		0.0],
		"alphaMode":"OPAQUE",
		"doubleSided":false,
		"name":"Mat"
	}]
}