{
	"nodes":[{
		"name":"die_arm_white_flag",
		"translation":[99.7558822631836,
		208.17544555664063,
		-27.867094039916993],
		"children":[1,
		2,
		3],
		"rotation":[-6.123234262925839e-17,
		0.0,
		0.0,
		-1.0],
		"scale":[1.0,
		1.0,
		1.0]
	},
	{
		"name":"die_arm_white_flag",
		"mesh":0
	},
	{
		"name":"die_arm_white_flag-Mat",
		"mesh":1
	},
	{
		"name":"die_arm_white_flag-Mat.1",
		"mesh":2
	}],
	"asset":{
		"version":"2.0",
		"generator":"Created using the official Cinema 4D glTF Exporter 1.000x284978"
	},
	"scenes":[{
		"nodes":[0]
	}],
	"meshes":[{
		"name":"die_arm_white_flag",
		"primitives":[{
			"attributes":{
				"POSITION":1,
				"NORMAL":2,
				"TEXCOORD_0":3
			},
			"indices":0
		}]
	},
	{
		"name":"die_arm_white_flag-Mat",
		"primitives":[{
			"attributes":{
				"POSITION":5,
				"NORMAL":6,
				"TEXCOORD_0":7
			},
			"indices":4,
			"material":0
		}]
	},
	{
		"name":"die_arm_white_flag-Mat.1",
		"primitives":[{
			"attributes":{
				"POSITION":9,
				"NORMAL":10,
				"TEXCOORD_0":11
			},
			"indices":8,
			"material":1
		}]
	}],
	"accessors":[{
		"bufferView":0,
		"type":"SCALAR",
		"max":[184],
		"componentType":5123,
		"count":573,
		"byteOffset":0,
		"min":[0]
	},
	{
		"bufferView":1,
		"type":"VEC3",
		"max":[133.3707275390625,
		390.6656799316406,
		18.94874382019043],
		"componentType":5126,
		"count":185,
		"byteOffset":0,
		"min":[-165.30043029785157,
		116.29471588134766,
		-13.591277122497559]
	},
	{
		"bufferView":1,
		"type":"VEC3",
		"max":[0.9943438172340393,
		0.9998750686645508,
		0.9998750686645508],
		"componentType":5126,
		"count":185,
		"byteOffset":12,
		"min":[-0.9993438124656677,
		-0.9998750686645508,
		-0.9998750686645508]
	},
	{
		"bufferView":1,
		"type":"VEC2",
		"max":[1.0,
		1.0],
		"componentType":5126,
		"count":185,
		"byteOffset":24,
		"min":[0.0,
		-1.4901161193847657e-8]
	},
	{
		"bufferView":2,
		"type":"SCALAR",
		"max":[151],
		"componentType":5123,
		"count":432,
		"byteOffset":0,
		"min":[0]
	},
	{
		"bufferView":3,
		"type":"VEC3",
		"max":[92.8676986694336,
		117.00692749023438,
		28.852649688720704],
		"componentType":5126,
		"count":152,
		"byteOffset":0,
		"min":[-39.394378662109378,
		-44.899410247802737,
		-35.8310661315918]
	},
	{
		"bufferView":3,
		"type":"VEC3",
		"max":[0.8859062790870667,
		0.8250625133514404,
		0.9998750686645508],
		"componentType":5126,
		"count":152,
		"byteOffset":12,
		"min":[-0.9640312790870667,
		-0.7829375267028809,
		-0.9998750686645508]
	},
	{
		"bufferView":3,
		"type":"VEC2",
		"max":[1.0,
		1.0],
		"componentType":5126,
		"count":152,
		"byteOffset":24,
		"min":[0.0,
		0.0]
	},
	{
		"bufferView":4,
		"type":"SCALAR",
		"max":[131],
		"componentType":5123,
		"count":324,
		"byteOffset":0,
		"min":[0]
	},
	{
		"bufferView":5,
		"type":"VEC3",
		"max":[123.69979858398438,
		166.63404846191407,
		27.605350494384767],
		"componentType":5126,
		"count":132,
		"byteOffset":0,
		"min":[51.39510726928711,
		88.81240844726563,
		-27.915786743164064]
	},
	{
		"bufferView":5,
		"type":"VEC3",
		"max":[0.9860625267028809,
		0.9842500686645508,
		0.9760937690734863],
		"componentType":5126,
		"count":132,
		"byteOffset":12,
		"min":[-0.9842500686645508,
		-0.9842500686645508,
		-0.9856563210487366]
	},
	{
		"bufferView":5,
		"type":"VEC2",
		"max":[1.3180748224258423,
		1.2779016494750977],
		"componentType":5126,
		"count":132,
		"byteOffset":24,
		"min":[-0.3180748224258423,
		-0.2779017686843872]
	}],
	"bufferViews":[{
		"buffer":0,
		"byteOffset":0,
		"byteLength":1146,
		"target":34963
	},
	{
		"buffer":0,
		"byteOffset":1148,
		"byteLength":5920,
		"target":34962,
		"byteStride":32
	},
	{
		"buffer":1,
		"byteOffset":0,
		"byteLength":864,
		"target":34963
	},
	{
		"buffer":1,
		"byteOffset":864,
		"byteLength":4864,
		"target":34962,
		"byteStride":32
	},
	{
		"buffer":2,
		"byteOffset":0,
		"byteLength":648,
		"target":34963
	},
	{
		"buffer":2,
		"byteOffset":648,
		"byteLength":4224,
		"target":34962,
		"byteStride":32
	}],
	"buffers":[{
		"uri":"data:application/octet-stream;base64,",
		"byteLength":7068
	},
	{
		"uri":"data:application/octet-stream;base64,",
		"byteLength":5728
	},
	{
		"uri":"data:application/octet-stream;base64,",
		"byteLength":4872
	}],
	"materials":[{
		"pbrMetallicRoughness":{
			"baseColorFactor":[1.0,
			1.0,
			1.0,
			1.0],
			"metallicFactor":0.0,
			"roughnessFactor":0.5
		},
		"emissiveFactor":[0.0,
		0.0,
		0.0],
		"alphaMode":"OPAQUE",
		"doubleSided":false,
		"name":"Mat"
	},
	{
		"pbrMetallicRoughness":{
			"baseColorFactor":[0.21,
			0.21,
			0.21,
			1.0],
			"metallicFactor":0.0,
			"roughnessFactor":0.5
		},
		"emissiveFactor":[0.0,
		0.0,
		0.0],
		"alphaMode":"OPAQUE",
		"doubleSided":false,
		"name":"Mat.1"
	}]
}