{
	"nodes":[{
		"name":"die_cube",
		"translation":[2.1316282072803007e-14,
		186.63885498046876,
		3.552713678800501e-15],
		"rotation":[0.0,
		0.0,
		0.0,
		-1.0],
		"scale":[1.0,
		1.0,
		1.0],
		"mesh":0
	}],
	"asset":{
		"version":"2.0",
		"generator":"Created using the official Cinema 4D glTF Exporter 1.000x284978"
	},
	"scenes":[{
		"nodes":[0]
	}],
	"meshes":[{
		"name":"die_cube",
		"primitives":[{
			"attributes":{
				"POSITION":1,
				"NORMAL":2,
				"TEXCOORD_0":3
			},
			"indices":0,
			"material":0
		}]
	}],
	"accessors":[{
		"bufferView":0,
		"type":"SCALAR",
		"max":[325],
		"componentType":5123,
		"count":1284,
		"byteOffset":0,
		"min":[0]
	},
	{
		"bufferView":1,
		"type":"VEC3",
		"max":[100.0,
		100.0,
		100.0],
		"componentType":5126,
		"count":326,
		"byteOffset":0,
		"min":[-100.0,
		-100.0,
		-100.0]
	},
	{
		"bufferView":1,
		"type":"VEC3",
		"max":[0.9904348850250244,
		0.9930781722068787,
		0.9929397702217102],
		"componentType":5126,
		"count":326,
		"byteOffset":12,
		"min":[-0.9904348850250244,
		-0.9930781722068787,
		-0.9904348850250244]
	},
	{
		"bufferView":1,
		"type":"VEC2",
		"max":[1.023940086364746,
		1.0169153213500977],
		"componentType":5126,
		"count":326,
		"byteOffset":24,
		"min":[-0.024887926876544954,
		-0.22640451788902284]
	}],
	"bufferViews":[{
		"buffer":0,
		"byteOffset":0,
		"byteLength":2568,
		"target":34963
	},
	{
		"buffer":0,
		"byteOffset":2568,
		"byteLength":10432,
		"target":34962,
		"byteStride":32
	}],
	"buffers":[{
		"uri":"data:application/octet-stream;base64,",
		"byteLength":13000
	}],
	"materials":[{
		"pbrMetallicRoughness":{
			"baseColorFactor":[1.0,
			1.0,
			1.0,
			1.0],
			"metallicFactor":0.0,
			"roughnessFactor":0.5
		},
		"emissiveFactor":[0.0,
		0.0,
		0.0],
		"alphaMode":"OPAQUE",
		"doubleSided":false,
		"name":"Mat"
	}]
}