{
	"nodes":[{
		"name":"spawn",
		"translation":[-68.64379119873047,
		-29.648311614990236,
		-15.309395790100098],
		"children":[1,
		2],
		"rotation":[0.0,
		0.0,
		0.0,
		-1.0],
		"scale":[1.0,
		1.0,
		1.0]
	},
	{
		"name":"spawn",
		"mesh":0
	},
	{
		"name":"spawn-MatFaceCRouge",
		"mesh":1
	}],
	"asset":{
		"version":"2.0",
		"generator":"Created using the official Cinema 4D glTF Exporter 1.000x284978"
	},
	"scenes":[{
		"nodes":[0]
	}],
	"meshes":[{
		"name":"spawn",
		"primitives":[{
			"attributes":{
				"POSITION":1,
				"NORMAL":2,
				"TEXCOORD_0":3
			},
			"indices":0
		}]
	},
	{
		"name":"spawn-MatFaceCRouge",
		"primitives":[{
			"attributes":{
				"POSITION":5,
				"NORMAL":6,
				"TEXCOORD_0":7
			},
			"indices":4,
			"material":0
		}]
	}],
	"accessors":[{
		"bufferView":0,
		"type":"SCALAR",
		"max":[265],
		"componentType":5123,
		"count":756,
		"byteOffset":0,
		"min":[0]
	},
	{
		"bufferView":1,
		"type":"VEC3",
		"max":[247.7261962890625,
		140.11683654785157,
		123.61241912841797],
		"componentType":5126,
		"count":266,
		"byteOffset":0,
		"min":[-110.43861389160156,
		123.6153564453125,
		-92.9936294555664]
	},
	{
		"bufferView":1,
		"type":"VEC3",
		"max":[1.0,
		1.0,
		1.0],
		"componentType":5126,
		"count":266,
		"byteOffset":12,
		"min":[-1.0,
		-1.0,
		-1.0]
	},
	{
		"bufferView":1,
		"type":"VEC2",
		"max":[1.1338835954666138,
		1.0],
		"componentType":5126,
		"count":266,
		"byteOffset":24,
		"min":[-0.08096830546855927,
		0.0]
	},
	{
		"bufferView":2,
		"type":"SCALAR",
		"max":[175],
		"componentType":5123,
		"count":456,
		"byteOffset":0,
		"min":[0]
	},
	{
		"bufferView":3,
		"type":"VEC3",
		"max":[251.3561553955078,
		136.52207946777345,
		127.15208435058594],
		"componentType":5126,
		"count":176,
		"byteOffset":0,
		"min":[-114.06856536865235,
		129.56056213378907,
		-96.53329467773438]
	},
	{
		"bufferView":3,
		"type":"VEC3",
		"max":[0.9956563115119934,
		1.0,
		0.9961562752723694],
		"componentType":5126,
		"count":176,
		"byteOffset":12,
		"min":[-0.9956563115119934,
		-1.0,
		-0.9961562752723694]
	},
	{
		"bufferView":3,
		"type":"VEC2",
		"max":[1.1338835954666138,
		1.0],
		"componentType":5126,
		"count":176,
		"byteOffset":24,
		"min":[-0.08096830546855927,
		0.0]
	}],
	"bufferViews":[{
		"buffer":0,
		"byteOffset":0,
		"byteLength":1512,
		"target":34963
	},
	{
		"buffer":0,
		"byteOffset":1512,
		"byteLength":8512,
		"target":34962,
		"byteStride":32
	},
	{
		"buffer":1,
		"byteOffset":0,
		"byteLength":912,
		"target":34963
	},
	{
		"buffer":1,
		"byteOffset":912,
		"byteLength":5632,
		"target":34962,
		"byteStride":32
	}],
	"buffers":[{
		"uri":"data:application/octet-stream;base64,",
		"byteLength":10024
	},
	{
		"uri":"data:application/octet-stream;base64,",
		"byteLength":6544
	}],
	"materials":[{
		"pbrMetallicRoughness":{
			"baseColorFactor":[0.66,
			0.06864000000000002,
			0.026400000000000025,
			1.0],
			"metallicFactor":0.0,
			"roughnessFactor":0.5
		},
		"emissiveFactor":[0.0,
		0.0,
		0.0],
		"alphaMode":"OPAQUE",
		"doubleSided":false,
		"name":"MatFaceCRouge"
	}]
}