{
	"nodes":[{
		"name":"stack_arm_left",
		"translation":[-93.10478973388672,
		205.37220764160157,
		2.484138011932373],
		"children":[1,
		2],
		"rotation":[0.0,
		0.0,
		0.0,
		-1.0],
		"scale":[1.0,
		1.0,
		1.0]
	},
	{
		"name":"stack_arm_left-Mat_s_7",
		"mesh":0
	},
	{
		"name":"stack_arm_left-Mat_s_6",
		"mesh":1
	}],
	"asset":{
		"version":"2.0",
		"generator":"Created using the official Cinema 4D glTF Exporter 1.000x284978"
	},
	"scenes":[{
		"nodes":[0]
	}],
	"meshes":[{
		"name":"stack_arm_left-Mat_s_7",
		"primitives":[{
			"attributes":{
				"POSITION":1,
				"NORMAL":2,
				"TEXCOORD_0":3
			},
			"indices":0,
			"material":0
		}]
	},
	{
		"name":"stack_arm_left-Mat_s_6",
		"primitives":[{
			"attributes":{
				"POSITION":5,
				"NORMAL":6,
				"TEXCOORD_0":7
			},
			"indices":4,
			"material":1
		}]
	}],
	"accessors":[{
		"bufferView":0,
		"type":"SCALAR",
		"max":[126],
		"componentType":5123,
		"count":324,
		"byteOffset":0,
		"min":[0]
	},
	{
		"bufferView":1,
		"type":"VEC3",
		"max":[-7.035384178161621,
		-101.67918395996094,
		13.843229293823243],
		"componentType":5126,
		"count":127,
		"byteOffset":0,
		"min":[-55.35282516479492,
		-168.63104248046876,
		-23.466028213500978]
	},
	{
		"bufferView":1,
		"type":"VEC3",
		"max":[0.9856563210487366,
		0.9972813129425049,
		0.9967188239097595],
		"componentType":5126,
		"count":127,
		"byteOffset":12,
		"min":[-0.9860625267028809,
		-0.9972813129425049,
		-0.9939063191413879]
	},
	{
		"bufferView":1,
		"type":"VEC2",
		"max":[1.3180748224258423,
		1.2779016494750977],
		"componentType":5126,
		"count":127,
		"byteOffset":24,
		"min":[-0.3180748224258423,
		-0.2779017686843872]
	},
	{
		"bufferView":2,
		"type":"SCALAR",
		"max":[152],
		"componentType":5123,
		"count":432,
		"byteOffset":0,
		"min":[0]
	},
	{
		"bufferView":3,
		"type":"VEC3",
		"max":[32.82683181762695,
		23.46105194091797,
		28.774526596069337],
		"componentType":5126,
		"count":153,
		"byteOffset":0,
		"min":[-41.194393157958987,
		-121.43350219726563,
		-21.641464233398439]
	},
	{
		"bufferView":3,
		"type":"VEC3",
		"max":[0.9966250658035278,
		0.8515625596046448,
		0.9953125715255737],
		"componentType":5126,
		"count":153,
		"byteOffset":12,
		"min":[-0.9748125672340393,
		-0.8875625133514404,
		-0.9910938143730164]
	},
	{
		"bufferView":3,
		"type":"VEC2",
		"max":[1.0,
		1.0],
		"componentType":5126,
		"count":153,
		"byteOffset":24,
		"min":[0.0,
		0.0]
	}],
	"bufferViews":[{
		"buffer":0,
		"byteOffset":0,
		"byteLength":648,
		"target":34963
	},
	{
		"buffer":0,
		"byteOffset":648,
		"byteLength":4064,
		"target":34962,
		"byteStride":32
	},
	{
		"buffer":1,
		"byteOffset":0,
		"byteLength":864,
		"target":34963
	},
	{
		"buffer":1,
		"byteOffset":864,
		"byteLength":4896,
		"target":34962,
		"byteStride":32
	}],
	"buffers":[{
		"uri":"data:application/octet-stream;base64,",
		"byteLength":4712
	},
	{
		"uri":"data:application/octet-stream;base64,",
		"byteLength":5760
	}],
	"materials":[{
		"pbrMetallicRoughness":{
			"baseColorFactor":[0.21,
			0.21,
			0.21,
			1.0],
			"metallicFactor":0.0,
			"roughnessFactor":0.5
		},
		"emissiveFactor":[0.0,
		0.0,
		0.0],
		"alphaMode":"OPAQUE",
		"doubleSided":false,
		"name":"Mat_s_7"
	},
	{
		"pbrMetallicRoughness":{
			"baseColorFactor":[1.0,
			1.0,
			1.0,
			1.0],
			"metallicFactor":0.0,
			"roughnessFactor":0.5
		},
		"emissiveFactor":[0.0,
		0.0,
		0.0],
		"alphaMode":"OPAQUE",
		"doubleSided":false,
		"name":"Mat_s_6"
	}]
}