{
	"nodes":[{
		"name":"stack_eyes",
		"translation":[37.24800109863281,
		213.43179321289063,
		-84.90339660644531],
		"children":[1,
		2],
		"rotation":[0.0,
		-4.440892098500626e-16,
		0.0,
		-1.0],
		"scale":[1.0,
		1.0,
		1.0]
	},
	{
		"name":"stack_eyes-Mat_s_4",
		"mesh":0
	},
	{
		"name":"stack_eyes-Mat_s_5",
		"mesh":1
	}],
	"asset":{
		"version":"2.0",
		"generator":"Created using the official Cinema 4D glTF Exporter 1.000x284978"
	},
	"scenes":[{
		"nodes":[0]
	}],
	"meshes":[{
		"name":"stack_eyes-Mat_s_4",
		"primitives":[{
			"attributes":{
				"POSITION":1,
				"NORMAL":2,
				"TEXCOORD_0":3
			},
			"indices":0,
			"material":0
		}]
	},
	{
		"name":"stack_eyes-Mat_s_5",
		"primitives":[{
			"attributes":{
				"POSITION":5,
				"NORMAL":6,
				"TEXCOORD_0":7
			},
			"indices":4,
			"material":1
		}]
	}],
	"accessors":[{
		"bufferView":0,
		"type":"SCALAR",
		"max":[229],
		"componentType":5123,
		"count":744,
		"byteOffset":0,
		"min":[0]
	},
	{
		"bufferView":1,
		"type":"VEC3",
		"max":[34.47455978393555,
		30.37031364440918,
		16.618528366088868],
		"componentType":5126,
		"count":230,
		"byteOffset":0,
		"min":[-115.0334243774414,
		-28.791013717651368,
		-14.467589378356934]
	},
	{
		"bufferView":1,
		"type":"VEC3",
		"max":[0.9997813105583191,
		0.9936875700950623,
		0.9918438196182251],
		"componentType":5126,
		"count":230,
		"byteOffset":12,
		"min":[-0.9997813105583191,
		-0.9997813105583191,
		-0.9961875677108765]
	},
	{
		"bufferView":1,
		"type":"VEC2",
		"max":[1.2580667734146119,
		1.2657153606414796],
		"componentType":5126,
		"count":230,
		"byteOffset":24,
		"min":[-0.23669058084487916,
		-0.2406344711780548]
	},
	{
		"bufferView":2,
		"type":"SCALAR",
		"max":[183],
		"componentType":5123,
		"count":648,
		"byteOffset":0,
		"min":[0]
	},
	{
		"bufferView":3,
		"type":"VEC3",
		"max":[15.621176719665528,
		20.994144439697267,
		8.941835403442383],
		"componentType":5126,
		"count":184,
		"byteOffset":0,
		"min":[-96.18004608154297,
		-22.706249237060548,
		-17.40549659729004]
	},
	{
		"bufferView":3,
		"type":"VEC3",
		"max":[0.9823750257492065,
		0.9853125214576721,
		0.9824063181877136],
		"componentType":5126,
		"count":184,
		"byteOffset":12,
		"min":[-0.9823750257492065,
		-0.9954062700271606,
		-0.9972813129425049]
	},
	{
		"bufferView":3,
		"type":"VEC2",
		"max":[1.0,
		1.0],
		"componentType":5126,
		"count":184,
		"byteOffset":24,
		"min":[0.0,
		0.0]
	}],
	"bufferViews":[{
		"buffer":0,
		"byteOffset":0,
		"byteLength":1488,
		"target":34963
	},
	{
		"buffer":0,
		"byteOffset":1488,
		"byteLength":7360,
		"target":34962,
		"byteStride":32
	},
	{
		"buffer":1,
		"byteOffset":0,
		"byteLength":1296,
		"target":34963
	},
	{
		"buffer":1,
		"byteOffset":1296,
		"byteLength":5888,
		"target":34962,
		"byteStride":32
	}],
	"buffers":[{
		"uri":"data:application/octet-stream;base64,",
		"byteLength":8848
	},
	{
		"uri":"data:application/octet-stream;base64,",
		"byteLength":7184
	}],
	"materials":[{
		"pbrMetallicRoughness":{
			"baseColorFactor":[1.0,
			1.0,
			1.0,
			1.0],
			"metallicFactor":0.0,
			"roughnessFactor":0.5
		},
		"emissiveFactor":[0.0,
		0.0,
		0.0],
		"alphaMode":"OPAQUE",
		"doubleSided":false,
		"name":"Mat_s_4"
	},
	{
		"pbrMetallicRoughness":{
			"baseColorFactor":[0.21,
			0.21,
			0.21,
			1.0],
			"metallicFactor":0.0,
			"roughnessFactor":0.5
		},
		"emissiveFactor":[0.0,
		0.0,
		0.0],
		"alphaMode":"OPAQUE",
		"doubleSided":false,
		"name":"Mat_s_5"
	}]
}