{
	"nodes":[{
		"name":"stack_arm_right",
		"translation":[101.59259796142578,
		125.04122161865235,
		1.066089153289795],
		"children":[1,
		2],
		"rotation":[0.0,
		0.0,
		0.030777037143707277,
		0.9995262622833252],
		"scale":[1.0,
		1.0,
		1.0]
	},
	{
		"name":"stack_arm_right-Mat_s_7",
		"mesh":0
	},
	{
		"name":"stack_arm_right-Mat_s_6",
		"mesh":1
	}],
	"asset":{
		"version":"2.0",
		"generator":"Created using the official Cinema 4D glTF Exporter 1.000x284978"
	},
	"scenes":[{
		"nodes":[0]
	}],
	"meshes":[{
		"name":"stack_arm_right-Mat_s_7",
		"primitives":[{
			"attributes":{
				"POSITION":1,
				"NORMAL":2,
				"TEXCOORD_0":3
			},
			"indices":0,
			"material":0
		}]
	},
	{
		"name":"stack_arm_right-Mat_s_6",
		"primitives":[{
			"attributes":{
				"POSITION":5,
				"NORMAL":6,
				"TEXCOORD_0":7
			},
			"indices":4,
			"material":1
		}]
	}],
	"accessors":[{
		"bufferView":0,
		"type":"SCALAR",
		"max":[128],
		"componentType":5123,
		"count":324,
		"byteOffset":0,
		"min":[0]
	},
	{
		"bufferView":1,
		"type":"VEC3",
		"max":[44.137447357177737,
		-30.636770248413087,
		17.008941650390626],
		"componentType":5126,
		"count":129,
		"byteOffset":0,
		"min":[-6.676185607910156,
		-102.78729248046875,
		-26.960927963256837]
	},
	{
		"bufferView":1,
		"type":"VEC3",
		"max":[0.9943750500679016,
		0.9751250743865967,
		0.9979062676429749],
		"componentType":5126,
		"count":129,
		"byteOffset":12,
		"min":[-0.9943438172340393,
		-0.9751250743865967,
		-0.9935938119888306]
	},
	{
		"bufferView":1,
		"type":"VEC2",
		"max":[1.3180748224258423,
		1.2779016494750977],
		"componentType":5126,
		"count":129,
		"byteOffset":24,
		"min":[-0.3180748224258423,
		-0.2779017686843872]
	},
	{
		"bufferView":2,
		"type":"SCALAR",
		"max":[152],
		"componentType":5123,
		"count":432,
		"byteOffset":0,
		"min":[0]
	},
	{
		"bufferView":3,
		"type":"VEC3",
		"max":[29.219871520996095,
		108.44241333007813,
		28.257644653320314],
		"componentType":5126,
		"count":153,
		"byteOffset":0,
		"min":[-47.927398681640628,
		-51.8075065612793,
		-24.110746383666993]
	},
	{
		"bufferView":3,
		"type":"VEC3",
		"max":[0.9746875166893005,
		0.8495000600814819,
		0.9989063143730164],
		"componentType":5126,
		"count":153,
		"byteOffset":12,
		"min":[-0.9943438172340393,
		-0.8650000691413879,
		-0.9982500672340393]
	},
	{
		"bufferView":3,
		"type":"VEC2",
		"max":[1.0,
		1.0],
		"componentType":5126,
		"count":153,
		"byteOffset":24,
		"min":[0.0,
		0.0]
	}],
	"bufferViews":[{
		"buffer":0,
		"byteOffset":0,
		"byteLength":648,
		"target":34963
	},
	{
		"buffer":0,
		"byteOffset":648,
		"byteLength":4128,
		"target":34962,
		"byteStride":32
	},
	{
		"buffer":1,
		"byteOffset":0,
		"byteLength":864,
		"target":34963
	},
	{
		"buffer":1,
		"byteOffset":864,
		"byteLength":4896,
		"target":34962,
		"byteStride":32
	}],
	"buffers":[{
		"uri":"data:application/octet-stream;base64,",
		"byteLength":4776
	},
	{
		"uri":"data:application/octet-stream;base64,",
		"byteLength":5760
	}],
	"materials":[{
		"pbrMetallicRoughness":{
			"baseColorFactor":[0.21,
			0.21,
			0.21,
			1.0],
			"metallicFactor":0.0,
			"roughnessFactor":0.5
		},
		"emissiveFactor":[0.0,
		0.0,
		0.0],
		"alphaMode":"OPAQUE",
		"doubleSided":false,
		"name":"Mat_s_7"
	},
	{
		"pbrMetallicRoughness":{
			"baseColorFactor":[1.0,
			1.0,
			1.0,
			1.0],
			"metallicFactor":0.0,
			"roughnessFactor":0.5
		},
		"emissiveFactor":[0.0,
		0.0,
		0.0],
		"alphaMode":"OPAQUE",
		"doubleSided":false,
		"name":"Mat_s_6"
	}]
}