{
	"nodes":[{
		"name":"stack_body",
		"translation":[-5.147765159606934,
		137.69027709960938,
		0.08678823709487915],
		"children":[1,
		2,
		3,
		4],
		"rotation":[0.0,
		0.0,
		0.0,
		-1.0],
		"scale":[1.0,
		1.0,
		1.0]
	},
	{
		"name":"stack_body-Mat_s_3",
		"mesh":0
	},
	{
		"name":"stack_body-Mat_s_2",
		"mesh":1
	},
	{
		"name":"stack_body-Mat_s_1",
		"mesh":2
	},
	{
		"name":"stack_body-Mat_s_6",
		"mesh":3
	}],
	"asset":{
		"version":"2.0",
		"generator":"Created using the official Cinema 4D glTF Exporter 1.000x284978"
	},
	"scenes":[{
		"nodes":[0]
	}],
	"meshes":[{
		"name":"stack_body-Mat_s_3",
		"primitives":[{
			"attributes":{
				"POSITION":1,
				"NORMAL":2,
				"TEXCOORD_0":3
			},
			"indices":0,
			"material":0
		}]
	},
	{
		"name":"stack_body-Mat_s_2",
		"primitives":[{
			"attributes":{
				"POSITION":5,
				"NORMAL":6,
				"TEXCOORD_0":7
			},
			"indices":4,
			"material":1
		}]
	},
	{
		"name":"stack_body-Mat_s_1",
		"primitives":[{
			"attributes":{
				"POSITION":9,
				"NORMAL":10,
				"TEXCOORD_0":11
			},
			"indices":8,
			"material":2
		}]
	},
	{
		"name":"stack_body-Mat_s_6",
		"primitives":[{
			"attributes":{
				"POSITION":13,
				"NORMAL":14,
				"TEXCOORD_0":15
			},
			"indices":12,
			"material":3
		}]
	}],
	"accessors":[{
		"bufferView":0,
		"type":"SCALAR",
		"max":[290],
		"componentType":5123,
		"count":1260,
		"byteOffset":0,
		"min":[0]
	},
	{
		"bufferView":1,
		"type":"VEC3",
		"max":[92.88594818115235,
		65.4996109008789,
		87.40585327148438],
		"componentType":5126,
		"count":291,
		"byteOffset":0,
		"min":[-87.78369903564453,
		-137.0389862060547,
		-89.00867462158203]
	},
	{
		"bufferView":1,
		"type":"VEC3",
		"max":[1.0,
		1.0,
		0.999000072479248],
		"componentType":5126,
		"count":291,
		"byteOffset":12,
		"min":[-1.0,
		-1.0,
		-0.999000072479248]
	},
	{
		"bufferView":1,
		"type":"VEC2",
		"max":[1.0,
		1.0],
		"componentType":5126,
		"count":291,
		"byteOffset":24,
		"min":[0.0,
		0.0]
	},
	{
		"bufferView":2,
		"type":"SCALAR",
		"max":[290],
		"componentType":5123,
		"count":1260,
		"byteOffset":0,
		"min":[0]
	},
	{
		"bufferView":3,
		"type":"VEC3",
		"max":[88.5657730102539,
		122.5885238647461,
		92.81449890136719],
		"componentType":5126,
		"count":291,
		"byteOffset":0,
		"min":[-92.8631820678711,
		-50.13193130493164,
		-86.23968505859375]
	},
	{
		"bufferView":3,
		"type":"VEC3",
		"max":[0.9996563196182251,
		1.0,
		0.999000072479248],
		"componentType":5126,
		"count":291,
		"byteOffset":12,
		"min":[-0.9996563196182251,
		-1.0,
		-0.999000072479248]
	},
	{
		"bufferView":3,
		"type":"VEC2",
		"max":[1.0,
		1.0],
		"componentType":5126,
		"count":291,
		"byteOffset":24,
		"min":[0.0,
		0.0]
	},
	{
		"bufferView":4,
		"type":"SCALAR",
		"max":[506],
		"componentType":5123,
		"count":2100,
		"byteOffset":0,
		"min":[0]
	},
	{
		"bufferView":5,
		"type":"VEC3",
		"max":[90.017333984375,
		153.8639373779297,
		89.62495422363281],
		"componentType":5126,
		"count":507,
		"byteOffset":0,
		"min":[-84.7613754272461,
		-108.02163696289063,
		-93.8178482055664]
	},
	{
		"bufferView":5,
		"type":"VEC3",
		"max":[1.0,
		1.0,
		0.999000072479248],
		"componentType":5126,
		"count":507,
		"byteOffset":12,
		"min":[-1.0,
		-1.0,
		-0.999000072479248]
	},
	{
		"bufferView":5,
		"type":"VEC2",
		"max":[1.0,
		1.0],
		"componentType":5126,
		"count":507,
		"byteOffset":24,
		"min":[0.0,
		0.0]
	},
	{
		"bufferView":6,
		"type":"SCALAR",
		"max":[236],
		"componentType":5123,
		"count":696,
		"byteOffset":0,
		"min":[0]
	},
	{
		"bufferView":7,
		"type":"VEC3",
		"max":[62.985809326171878,
		155.6836395263672,
		55.91450500488281],
		"componentType":5126,
		"count":237,
		"byteOffset":0,
		"min":[-57.4532470703125,
		122.32872772216797,
		-68.93997955322266]
	},
	{
		"bufferView":7,
		"type":"VEC3",
		"max":[0.9995625615119934,
		1.0,
		0.9998437762260437],
		"componentType":5126,
		"count":237,
		"byteOffset":12,
		"min":[-0.9998750686645508,
		-1.0,
		-0.999000072479248]
	},
	{
		"bufferView":7,
		"type":"VEC2",
		"max":[1.0,
		1.0],
		"componentType":5126,
		"count":237,
		"byteOffset":24,
		"min":[0.0,
		0.0]
	}],
	"bufferViews":[{
		"buffer":0,
		"byteOffset":0,
		"byteLength":2520,
		"target":34963
	},
	{
		"buffer":0,
		"byteOffset":2520,
		"byteLength":9312,
		"target":34962,
		"byteStride":32
	},
	{
		"buffer":1,
		"byteOffset":0,
		"byteLength":2520,
		"target":34963
	},
	{
		"buffer":1,
		"byteOffset":2520,
		"byteLength":9312,
		"target":34962,
		"byteStride":32
	},
	{
		"buffer":2,
		"byteOffset":0,
		"byteLength":4200,
		"target":34963
	},
	{
		"buffer":2,
		"byteOffset":4200,
		"byteLength":16224,
		"target":34962,
		"byteStride":32
	},
	{
		"buffer":3,
		"byteOffset":0,
		"byteLength":1392,
		"target":34963
	},
	{
		"buffer":3,
		"byteOffset":1392,
		"byteLength":7584,
		"target":34962,
		"byteStride":32
	}],
	"buffers":[{
		"uri":"data:application/octet-stream;base64,",
		"byteLength":11832
	},
	{
		"uri":"data:application/octet-stream;base64,",
		"byteLength":11832
	},
	{
		"uri":"data:application/octet-stream;base64,",
		"byteLength":20424
	},
	{
		"uri":"data:application/octet-stream;base64,",
		"byteLength":8976
	}],
	"materials":[{
		"pbrMetallicRoughness":{
			"baseColorFactor":[0.2769000000000001,
			0.43570333333333319,
			0.71,
			1.0],
			"metallicFactor":0.0,
			"roughnessFactor":0.5
		},
		"emissiveFactor":[0.0,
		0.0,
		0.0],
		"alphaMode":"OPAQUE",
		"doubleSided":false,
		"name":"Mat_s_3"
	},
	{
		"pbrMetallicRoughness":{
			"baseColorFactor":[0.8,
			0.41240000000000057,
			0.392,
			1.0],
			"metallicFactor":0.0,
			"roughnessFactor":0.5
		},
		"emissiveFactor":[0.0,
		0.0,
		0.0],
		"alphaMode":"OPAQUE",
		"doubleSided":false,
		"name":"Mat_s_2"
	},
	{
		"pbrMetallicRoughness":{
			"baseColorFactor":[0.28200000000000005,
			0.47000000000000005,
			0.3070666666666666,
			1.0],
			"metallicFactor":0.0,
			"roughnessFactor":0.5
		},
		"emissiveFactor":[0.0,
		0.0,
		0.0],
		"alphaMode":"OPAQUE",
		"doubleSided":false,
		"name":"Mat_s_1"
	},
	{
		"pbrMetallicRoughness":{
			"baseColorFactor":[1.0,
			1.0,
			1.0,
			1.0],
			"metallicFactor":0.0,
			"roughnessFactor":0.5
		},
		"emissiveFactor":[0.0,
		0.0,
		0.0],
		"alphaMode":"OPAQUE",
		"doubleSided":false,
		"name":"Mat_s_6"
	}]
}