{
	"nodes":[{
		"name":"bullet",
		"translation":[175.79075622558595,
		147.20387268066407,
		-190.79437255859376],
		"rotation":[0.0,
		0.0,
		0.0,
		-1.0],
		"scale":[1.0,
		1.0,
		1.0],
		"mesh":0
	}],
	"asset":{
		"version":"2.0",
		"generator":"Created using the official Cinema 4D glTF Exporter 1.000x284978"
	},
	"scenes":[{
		"nodes":[0]
	}],
	"meshes":[{
		"name":"bullet",
		"primitives":[{
			"attributes":{
				"POSITION":1,
				"NORMAL":2,
				"TEXCOORD_0":3
			},
			"indices":0
		}]
	}],
	"accessors":[{
		"bufferView":0,
		"type":"SCALAR",
		"max":[78],
		"componentType":5123,
		"count":126,
		"byteOffset":0,
		"min":[0]
	},
	{
		"bufferView":1,
		"type":"VEC3",
		"max":[28.814008712768556,
		78.07758331298828,
		166.03477478027345],
		"componentType":5126,
		"count":79,
		"byteOffset":0,
		"min":[-72.52348327636719,
		-22.533994674682618,
		-45.81315612792969]
	},
	{
		"bufferView":1,
		"type":"VEC3",
		"max":[0.9967793822288513,
		0.9710637927055359,
		1.0],
		"componentType":5126,
		"count":79,
		"byteOffset":12,
		"min":[-1.0,
		-0.9860249161720276,
		-1.0]
	},
	{
		"bufferView":1,
		"type":"VEC2",
		"max":[1.0,
		1.0],
		"componentType":5126,
		"count":79,
		"byteOffset":24,
		"min":[0.0,
		0.0]
	}],
	"bufferViews":[{
		"buffer":0,
		"byteOffset":0,
		"byteLength":252,
		"target":34963
	},
	{
		"buffer":0,
		"byteOffset":252,
		"byteLength":2528,
		"target":34962,
		"byteStride":32
	}],
	"buffers":[{
		"uri":"data:application/octet-stream;base64,",
		"byteLength":2780
	}]
}