{
	"nodes":[{
		"name":"laser",
		"translation":[173.94979858398438,
		178.87301635742188,
		-126.03461456298828],
		"rotation":[0.0,
		0.0,
		0.0,
		-1.0],
		"scale":[1.0,
		1.0,
		1.0],
		"mesh":0
	}],
	"asset":{
		"version":"2.0",
		"generator":"Created using the official Cinema 4D glTF Exporter 1.000x284978"
	},
	"scenes":[{
		"nodes":[0]
	}],
	"meshes":[{
		"name":"laser",
		"primitives":[{
			"attributes":{
				"POSITION":1,
				"NORMAL":2,
				"TEXCOORD_0":3
			},
			"indices":0
		}]
	}],
	"accessors":[{
		"bufferView":0,
		"type":"SCALAR",
		"max":[148],
		"componentType":5123,
		"count":318,
		"byteOffset":0,
		"min":[0]
	},
	{
		"bufferView":1,
		"type":"VEC3",
		"max":[60.1340217590332,
		46.40843963623047,
		101.27501678466797],
		"componentType":5126,
		"count":149,
		"byteOffset":0,
		"min":[-70.68252563476563,
		-79.35042572021485,
		-178.96023559570313]
	},
	{
		"bufferView":1,
		"type":"VEC3",
		"max":[0.9967793822288513,
		0.9749279618263245,
		1.0],
		"componentType":5126,
		"count":149,
		"byteOffset":12,
		"min":[-1.0,
		-0.9860249161720276,
		-1.0]
	},
	{
		"bufferView":1,
		"type":"VEC2",
		"max":[1.0,
		1.0],
		"componentType":5126,
		"count":149,
		"byteOffset":24,
		"min":[0.0,
		0.0]
	}],
	"bufferViews":[{
		"buffer":0,
		"byteOffset":0,
		"byteLength":636,
		"target":34963
	},
	{
		"buffer":0,
		"byteOffset":636,
		"byteLength":4768,
		"target":34962,
		"byteStride":32
	}],
	"buffers":[{
		"uri":"data:application/octet-stream;base64,",
		"byteLength":5404
	}]
}