{
	"nodes":[{
		"name":"noArm",
		"translation":[103.000732421875,
		209.47705078125,
		-47.07437515258789],
		"rotation":[-0.7071067690849304,
		0.0,
		0.0,
		-0.7071067690849304],
		"scale":[1.0,
		1.0,
		1.0],
		"mesh":0
	}],
	"asset":{
		"version":"2.0",
		"generator":"Created using the official Cinema 4D glTF Exporter 1.000x284978"
	},
	"scenes":[{
		"nodes":[0]
	}],
	"meshes":[{
		"name":"noArm",
		"primitives":[{
			"attributes":{
				"POSITION":1,
				"NORMAL":2,
				"TEXCOORD_0":3
			},
			"indices":0
		}]
	}],
	"accessors":[{
		"bufferView":0,
		"type":"SCALAR",
		"max":[62],
		"componentType":5123,
		"count":108,
		"byteOffset":0,
		"min":[0]
	},
	{
		"bufferView":1,
		"type":"VEC3",
		"max":[95.46409606933594,
		15.804408073425293,
		22.31477165222168],
		"componentType":5126,
		"count":63,
		"byteOffset":0,
		"min":[0.26653894782066347,
		-83.35917663574219,
		-104.32086181640625]
	},
	{
		"bufferView":1,
		"type":"VEC3",
		"max":[0.9967793822288513,
		0.961837112903595,
		0.8689358234405518],
		"componentType":5126,
		"count":63,
		"byteOffset":12,
		"min":[-1.0,
		-0.9860249161720276,
		-1.0]
	},
	{
		"bufferView":1,
		"type":"VEC2",
		"max":[1.0,
		1.0],
		"componentType":5126,
		"count":63,
		"byteOffset":24,
		"min":[0.0,
		0.0]
	}],
	"bufferViews":[{
		"buffer":0,
		"byteOffset":0,
		"byteLength":216,
		"target":34963
	},
	{
		"buffer":0,
		"byteOffset":216,
		"byteLength":2016,
		"target":34962,
		"byteStride":32
	}],
	"buffers":[{
		"uri":"data:application/octet-stream;base64,",
		"byteLength":2232
	}]
}