{
	"nodes":[{
		"name":"Cube.5",
		"translation":[61.577789306640628,
		33.75404357910156,
		-5.075445175170898],
		"rotation":[0.0,
		0.0,
		0.0,
		-1.0],
		"scale":[1.0,
		1.0,
		1.0],
		"mesh":0
	}],
	"asset":{
		"version":"2.0",
		"generator":"Created using the official Cinema 4D glTF Exporter 1.000x284978"
	},
	"scenes":[{
		"nodes":[0]
	}],
	"meshes":[{
		"name":"Cube.5",
		"primitives":[{
			"attributes":{
				"POSITION":1,
				"NORMAL":2,
				"TEXCOORD_0":3
			},
			"indices":0
		}]
	}],
	"accessors":[{
		"bufferView":0,
		"type":"SCALAR",
		"max":[135],
		"componentType":5123,
		"count":264,
		"byteOffset":0,
		"min":[0]
	},
	{
		"bufferView":1,
		"type":"VEC3",
		"max":[64.49542999267578,
		58.63506317138672,
		100.18905639648438],
		"componentType":5126,
		"count":136,
		"byteOffset":0,
		"min":[-187.65101623535157,
		-30.921581268310548,
		-91.2633285522461]
	},
	{
		"bufferView":1,
		"type":"VEC3",
		"max":[1.0,
		1.0000001192092896,
		1.0],
		"componentType":5126,
		"count":136,
		"byteOffset":12,
		"min":[-1.0,
		-1.0000001192092896,
		-1.0]
	},
	{
		"bufferView":1,
		"type":"VEC2",
		"max":[1.0,
		1.0],
		"componentType":5126,
		"count":136,
		"byteOffset":24,
		"min":[0.0,
		0.0]
	}],
	"bufferViews":[{
		"buffer":0,
		"byteOffset":0,
		"byteLength":528,
		"target":34963
	},
	{
		"buffer":0,
		"byteOffset":528,
		"byteLength":4352,
		"target":34962,
		"byteStride":32
	}],
	"buffers":[{
		"uri":"data:application/octet-stream;base64,",
		"byteLength":4880
	}]
}