{
	"nodes":[{
		"name":"card_foot_right",
		"translation":[-0.08099467307329178,
		5.012843608856201,
		56.69052505493164],
		"rotation":[0.5,
		0.5,
		-0.5,
		-0.5],
		"scale":[1.0,
		1.0,
		1.0],
		"mesh":0
	}],
	"asset":{
		"version":"2.0",
		"generator":"Created using the official Cinema 4D glTF Exporter 1.000x284978"
	},
	"scenes":[{
		"nodes":[0]
	}],
	"meshes":[{
		"name":"card_foot_right",
		"primitives":[{
			"attributes":{
				"POSITION":1,
				"NORMAL":2,
				"TEXCOORD_0":3
			},
			"indices":0,
			"material":0
		}]
	}],
	"accessors":[{
		"bufferView":0,
		"type":"SCALAR",
		"max":[135],
		"componentType":5123,
		"count":516,
		"byteOffset":0,
		"min":[0]
	},
	{
		"bufferView":1,
		"type":"VEC3",
		"max":[-0.4824230372905731,
		53.9759635925293,
		84.58654022216797],
		"componentType":5126,
		"count":136,
		"byteOffset":0,
		"min":[-43.92436599731445,
		-64.43580627441406,
		-116.06291961669922]
	},
	{
		"bufferView":1,
		"type":"VEC3",
		"max":[1.0,
		0.9907444715499878,
		0.9815732836723328],
		"componentType":5126,
		"count":136,
		"byteOffset":12,
		"min":[-1.0,
		-0.986224889755249,
		-0.9826657176017761]
	},
	{
		"bufferView":1,
		"type":"VEC2",
		"max":[1.462688684463501,
		1.1038832664489747],
		"componentType":5126,
		"count":136,
		"byteOffset":24,
		"min":[-0.642300546169281,
		-0.03834600746631622]
	}],
	"bufferViews":[{
		"buffer":0,
		"byteOffset":0,
		"byteLength":1032,
		"target":34963
	},
	{
		"buffer":0,
		"byteOffset":1032,
		"byteLength":4352,
		"target":34962,
		"byteStride":32
	}],
	"buffers":[{
		"uri":"data:application/octet-stream;base64,",
		"byteLength":5384
	}],
	"materials":[{
		"pbrMetallicRoughness":{
			"baseColorFactor":[0.21,
			0.21,
			0.21,
			1.0],
			"metallicFactor":0.0,
			"roughnessFactor":0.5
		},
		"emissiveFactor":[0.0,
		0.0,
		0.0],
		"alphaMode":"OPAQUE",
		"doubleSided":false,
		"name":"Mat_c_4"
	}]
}