{
	"nodes":[{
		"name":"card_foot_left",
		"translation":[1.1697633266448975,
		5.298012733459473,
		-51.10133743286133],
		"rotation":[0.5,
		0.5,
		-0.5,
		-0.5],
		"scale":[1.0,
		1.0,
		1.0],
		"mesh":0
	}],
	"asset":{
		"version":"2.0",
		"generator":"Created using the official Cinema 4D glTF Exporter 1.000x284978"
	},
	"scenes":[{
		"nodes":[0]
	}],
	"meshes":[{
		"name":"card_foot_left",
		"primitives":[{
			"attributes":{
				"POSITION":1,
				"NORMAL":2,
				"TEXCOORD_0":3
			},
			"indices":0,
			"material":0
		}]
	}],
	"accessors":[{
		"bufferView":0,
		"type":"SCALAR",
		"max":[135],
		"componentType":5123,
		"count":516,
		"byteOffset":0,
		"min":[0]
	},
	{
		"bufferView":1,
		"type":"VEC3",
		"max":[-0.7675922513008118,
		68.53523254394531,
		85.83729553222656],
		"componentType":5126,
		"count":136,
		"byteOffset":0,
		"min":[-44.209537506103519,
		-49.87654113769531,
		-114.81216430664063]
	},
	{
		"bufferView":1,
		"type":"VEC3",
		"max":[1.0,
		0.9862250089645386,
		0.9815731644630432],
		"componentType":5126,
		"count":136,
		"byteOffset":12,
		"min":[-1.0,
		-0.9907444715499878,
		-0.9826655983924866]
	},
	{
		"bufferView":1,
		"type":"VEC2",
		"max":[1.462688684463501,
		1.1038832664489747],
		"componentType":5126,
		"count":136,
		"byteOffset":24,
		"min":[-0.642300546169281,
		-0.03834600746631622]
	}],
	"bufferViews":[{
		"buffer":0,
		"byteOffset":0,
		"byteLength":1032,
		"target":34963
	},
	{
		"buffer":0,
		"byteOffset":1032,
		"byteLength":4352,
		"target":34962,
		"byteStride":32
	}],
	"buffers":[{
		"uri":"data:application/octet-stream;base64,",
		"byteLength":5384
	}],
	"materials":[{
		"pbrMetallicRoughness":{
			"baseColorFactor":[0.21,
			0.21,
			0.21,
			1.0],
			"metallicFactor":0.0,
			"roughnessFactor":0.5
		},
		"emissiveFactor":[0.0,
		0.0,
		0.0],
		"alphaMode":"OPAQUE",
		"doubleSided":false,
		"name":"Mat_c_4"
	}]
}