{
	"nodes":[{
		"name":"card_arm_right",
		"translation":[-11.06084156036377,
		211.62301635742188,
		103.68089294433594],
		"children":[1,
		2,
		3],
		"rotation":[0.0,
		0.0,
		0.0,
		-1.0],
		"scale":[1.0,
		1.0,
		1.0]
	},
	{
		"name":"card_arm_right-Mat_c_5",
		"mesh":0
	},
	{
		"name":"card_arm_right-Mat_c_3",
		"mesh":1
	},
	{
		"name":"card_arm_right-Mat_c_4",
		"mesh":2
	}],
	"asset":{
		"version":"2.0",
		"generator":"Created using the official Cinema 4D glTF Exporter 1.000x284978"
	},
	"scenes":[{
		"nodes":[0]
	}],
	"meshes":[{
		"name":"card_arm_right-Mat_c_5",
		"primitives":[{
			"attributes":{
				"POSITION":1,
				"NORMAL":2,
				"TEXCOORD_0":3
			},
			"indices":0,
			"material":0
		}]
	},
	{
		"name":"card_arm_right-Mat_c_3",
		"primitives":[{
			"attributes":{
				"POSITION":5,
				"NORMAL":6,
				"TEXCOORD_0":7
			},
			"indices":4,
			"material":1
		}]
	},
	{
		"name":"card_arm_right-Mat_c_4",
		"primitives":[{
			"attributes":{
				"POSITION":9,
				"NORMAL":10,
				"TEXCOORD_0":11
			},
			"indices":8,
			"material":2
		}]
	}],
	"accessors":[{
		"bufferView":0,
		"type":"SCALAR",
		"max":[461],
		"componentType":5123,
		"count":1308,
		"byteOffset":0,
		"min":[0]
	},
	{
		"bufferView":1,
		"type":"VEC3",
		"max":[229.85354614257813,
		35.920589447021487,
		90.95063781738281],
		"componentType":5126,
		"count":462,
		"byteOffset":0,
		"min":[28.87792205810547,
		-112.92292022705078,
		16.453968048095704]
	},
	{
		"bufferView":1,
		"type":"VEC3",
		"max":[1.0,
		1.0,
		1.0],
		"componentType":5126,
		"count":462,
		"byteOffset":12,
		"min":[-1.0,
		-1.0,
		-1.0]
	},
	{
		"bufferView":1,
		"type":"VEC2",
		"max":[1.1080007553100587,
		1.110046148300171],
		"componentType":5126,
		"count":462,
		"byteOffset":24,
		"min":[-0.10800080001354218,
		-0.11004604399204254]
	},
	{
		"bufferView":2,
		"type":"SCALAR",
		"max":[154],
		"componentType":5123,
		"count":432,
		"byteOffset":0,
		"min":[0]
	},
	{
		"bufferView":3,
		"type":"VEC3",
		"max":[102.52366638183594,
		28.678298950195314,
		81.63214874267578],
		"componentType":5126,
		"count":155,
		"byteOffset":0,
		"min":[-20.734134674072267,
		-89.87842559814453,
		-38.33097457885742]
	},
	{
		"bufferView":3,
		"type":"VEC3",
		"max":[0.9997813105583191,
		0.9079688191413879,
		0.8849688172340393],
		"componentType":5126,
		"count":155,
		"byteOffset":12,
		"min":[-0.9978125691413879,
		-0.8777812719345093,
		-0.8733437657356262]
	},
	{
		"bufferView":3,
		"type":"VEC2",
		"max":[1.0,
		1.0],
		"componentType":5126,
		"count":155,
		"byteOffset":24,
		"min":[0.0,
		0.0]
	},
	{
		"bufferView":4,
		"type":"SCALAR",
		"max":[128],
		"componentType":5123,
		"count":324,
		"byteOffset":0,
		"min":[0]
	},
	{
		"bufferView":5,
		"type":"VEC3",
		"max":[135.37130737304688,
		-37.56893539428711,
		81.73065185546875],
		"componentType":5126,
		"count":129,
		"byteOffset":0,
		"min":[87.40872192382813,
		-87.5738525390625,
		22.27151870727539]
	},
	{
		"bufferView":5,
		"type":"VEC3",
		"max":[0.9985625743865967,
		0.995093822479248,
		0.9896875619888306],
		"componentType":5126,
		"count":129,
		"byteOffset":12,
		"min":[-0.9985625743865967,
		-0.9786875247955322,
		-0.9847813248634338]
	},
	{
		"bufferView":5,
		"type":"VEC2",
		"max":[1.3180748224258423,
		1.2779016494750977],
		"componentType":5126,
		"count":129,
		"byteOffset":24,
		"min":[-0.3180748224258423,
		-0.2779017686843872]
	}],
	"bufferViews":[{
		"buffer":0,
		"byteOffset":0,
		"byteLength":2616,
		"target":34963
	},
	{
		"buffer":0,
		"byteOffset":2616,
		"byteLength":14784,
		"target":34962,
		"byteStride":32
	},
	{
		"buffer":1,
		"byteOffset":0,
		"byteLength":864,
		"target":34963
	},
	{
		"buffer":1,
		"byteOffset":864,
		"byteLength":4960,
		"target":34962,
		"byteStride":32
	},
	{
		"buffer":2,
		"byteOffset":0,
		"byteLength":648,
		"target":34963
	},
	{
		"buffer":2,
		"byteOffset":648,
		"byteLength":4128,
		"target":34962,
		"byteStride":32
	}],
	"buffers":[{
		"uri":"data:application/octet-stream;base64,",
		"byteLength":17400
	},
	{
		"uri":"data:application/octet-stream;base64,",
		"byteLength":5824
	},
	{
		"uri":"data:application/octet-stream;base64,",
		"byteLength":4776
	}],
	"materials":[{
		"pbrMetallicRoughness":{
			"baseColorFactor":[0.52,
			0.025999999999999969,
			0.025999999999999969,
			1.0],
			"metallicFactor":0.0,
			"roughnessFactor":0.5
		},
		"emissiveFactor":[0.0,
		0.0,
		0.0],
		"alphaMode":"OPAQUE",
		"doubleSided":false,
		"name":"Mat_c_5"
	},
	{
		"pbrMetallicRoughness":{
			"baseColorFactor":[1.0,
			1.0,
			1.0,
			1.0],
			"metallicFactor":0.0,
			"roughnessFactor":0.5
		},
		"emissiveFactor":[0.0,
		0.0,
		0.0],
		"alphaMode":"OPAQUE",
		"doubleSided":false,
		"name":"Mat_c_3"
	},
	{
		"pbrMetallicRoughness":{
			"baseColorFactor":[0.21,
			0.21,
			0.21,
			1.0],
			"metallicFactor":0.0,
			"roughnessFactor":0.5
		},
		"emissiveFactor":[0.0,
		0.0,
		0.0],
		"alphaMode":"OPAQUE",
		"doubleSided":false,
		"name":"Mat_c_4"
	}]
}