{
	"nodes":[{
		"name":"card_body",
		"translation":[29.876296997070314,
		156.1590118408203,
		-0.5650257468223572],
		"children":[1,
		2,
		3,
		4],
		"rotation":[0.0,
		0.0,
		0.0,
		-1.0],
		"scale":[1.0,
		1.0,
		1.0]
	},
	{
		"name":"card_body",
		"mesh":0
	},
	{
		"name":"card_body-Mat_c_3",
		"mesh":1
	},
	{
		"name":"card_body-Mat_c_4",
		"mesh":2
	},
	{
		"name":"card_body-Mat_c_5",
		"mesh":3
	}],
	"asset":{
		"version":"2.0",
		"generator":"Created using the official Cinema 4D glTF Exporter 1.000x284978"
	},
	"scenes":[{
		"nodes":[0]
	}],
	"meshes":[{
		"name":"card_body",
		"primitives":[{
			"attributes":{
				"POSITION":1,
				"NORMAL":2,
				"TEXCOORD_0":3
			},
			"indices":0
		}]
	},
	{
		"name":"card_body-Mat_c_3",
		"primitives":[{
			"attributes":{
				"POSITION":5,
				"NORMAL":6,
				"TEXCOORD_0":7
			},
			"indices":4,
			"material":0
		}]
	},
	{
		"name":"card_body-Mat_c_4",
		"primitives":[{
			"attributes":{
				"POSITION":9,
				"NORMAL":10,
				"TEXCOORD_0":11
			},
			"indices":8,
			"material":1
		}]
	},
	{
		"name":"card_body-Mat_c_5",
		"primitives":[{
			"attributes":{
				"POSITION":13,
				"NORMAL":14,
				"TEXCOORD_0":15
			},
			"indices":12,
			"material":2
		}]
	}],
	"accessors":[{
		"bufferView":0,
		"type":"SCALAR",
		"max":[302],
		"componentType":5123,
		"count":1104,
		"byteOffset":0,
		"min":[0]
	},
	{
		"bufferView":1,
		"type":"VEC3",
		"max":[23.788528442382814,
		150.95626831054688,
		105.08650970458985],
		"componentType":5126,
		"count":303,
		"byteOffset":0,
		"min":[-80.5739517211914,
		-154.0912628173828,
		-103.95645904541016]
	},
	{
		"bufferView":1,
		"type":"VEC3",
		"max":[0.999625027179718,
		0.9754688143730164,
		0.975562572479248],
		"componentType":5126,
		"count":303,
		"byteOffset":12,
		"min":[-0.9996563196182251,
		-0.975562572479248,
		-0.9754688143730164]
	},
	{
		"bufferView":1,
		"type":"VEC2",
		"max":[1.035065770149231,
		1.0836036205291749],
		"componentType":5126,
		"count":303,
		"byteOffset":24,
		"min":[-0.03506573662161827,
		-0.08360376954078675]
	},
	{
		"bufferView":2,
		"type":"SCALAR",
		"max":[229],
		"componentType":5123,
		"count":744,
		"byteOffset":0,
		"min":[0]
	},
	{
		"bufferView":3,
		"type":"VEC3",
		"max":[24.717010498046876,
		90.48094940185547,
		79.52728271484375],
		"componentType":5126,
		"count":230,
		"byteOffset":0,
		"min":[-1.682694911956787,
		28.910459518432618,
		-80.1969223022461]
	},
	{
		"bufferView":3,
		"type":"VEC3",
		"max":[0.9978438019752502,
		0.9746875166893005,
		0.9759063124656677],
		"componentType":5126,
		"count":230,
		"byteOffset":12,
		"min":[-0.9940000176429749,
		-0.9995625615119934,
		-0.9759063124656677]
	},
	{
		"bufferView":3,
		"type":"VEC2",
		"max":[1.2580667734146119,
		1.2657153606414796],
		"componentType":5126,
		"count":230,
		"byteOffset":24,
		"min":[-0.23669058084487916,
		-0.2406344711780548]
	},
	{
		"bufferView":4,
		"type":"SCALAR",
		"max":[183],
		"componentType":5123,
		"count":648,
		"byteOffset":0,
		"min":[0]
	},
	{
		"bufferView":5,
		"type":"VEC3",
		"max":[28.99761962890625,
		78.33001708984375,
		56.32573699951172],
		"componentType":5126,
		"count":184,
		"byteOffset":0,
		"min":[4.246530055999756,
		34.91075134277344,
		-56.99537658691406]
	},
	{
		"bufferView":5,
		"type":"VEC3",
		"max":[0.9985625743865967,
		0.9982500672340393,
		0.9939063191413879],
		"componentType":5126,
		"count":184,
		"byteOffset":12,
		"min":[-0.9940000176429749,
		-0.9997813105583191,
		-0.9939063191413879]
	},
	{
		"bufferView":5,
		"type":"VEC2",
		"max":[1.0,
		1.0],
		"componentType":5126,
		"count":184,
		"byteOffset":24,
		"min":[0.0,
		0.0]
	},
	{
		"bufferView":6,
		"type":"SCALAR",
		"max":[521],
		"componentType":5123,
		"count":1908,
		"byteOffset":0,
		"min":[0]
	},
	{
		"bufferView":7,
		"type":"VEC3",
		"max":[32.2740478515625,
		140.64495849609376,
		95.29039001464844],
		"componentType":5126,
		"count":522,
		"byteOffset":0,
		"min":[-5.254128456115723,
		-140.7030029296875,
		-95.21892547607422]
	},
	{
		"bufferView":7,
		"type":"VEC3",
		"max":[0.9998750686645508,
		0.9818750619888306,
		0.9994375705718994],
		"componentType":5126,
		"count":522,
		"byteOffset":12,
		"min":[-0.9998750686645508,
		-0.9998750686645508,
		-0.9994375705718994]
	},
	{
		"bufferView":7,
		"type":"VEC2",
		"max":[1.0,
		1.0],
		"componentType":5126,
		"count":522,
		"byteOffset":24,
		"min":[0.0,
		0.0]
	}],
	"bufferViews":[{
		"buffer":0,
		"byteOffset":0,
		"byteLength":2208,
		"target":34963
	},
	{
		"buffer":0,
		"byteOffset":2208,
		"byteLength":9696,
		"target":34962,
		"byteStride":32
	},
	{
		"buffer":1,
		"byteOffset":0,
		"byteLength":1488,
		"target":34963
	},
	{
		"buffer":1,
		"byteOffset":1488,
		"byteLength":7360,
		"target":34962,
		"byteStride":32
	},
	{
		"buffer":2,
		"byteOffset":0,
		"byteLength":1296,
		"target":34963
	},
	{
		"buffer":2,
		"byteOffset":1296,
		"byteLength":5888,
		"target":34962,
		"byteStride":32
	},
	{
		"buffer":3,
		"byteOffset":0,
		"byteLength":3816,
		"target":34963
	},
	{
		"buffer":3,
		"byteOffset":3816,
		"byteLength":16704,
		"target":34962,
		"byteStride":32
	}],
	"buffers":[{
		"uri":"data:application/octet-stream;base64,",
		"byteLength":11904
	},
	{
		"uri":"data:application/octet-stream;base64,",
		"byteLength":8848
	},
	{
		"uri":"data:application/octet-stream;base64,",
		"byteLength":7184
	},
	{
		"uri":"data:application/octet-stream;base64,",
		"byteLength":20520
	}],
	"materials":[{
		"pbrMetallicRoughness":{
			"baseColorFactor":[1.0,
			1.0,
			1.0,
			1.0],
			"metallicFactor":0.0,
			"roughnessFactor":0.5
		},
		"emissiveFactor":[0.0,
		0.0,
		0.0],
		"alphaMode":"OPAQUE",
		"doubleSided":false,
		"name":"Mat_c_3"
	},
	{
		"pbrMetallicRoughness":{
			"baseColorFactor":[0.21,
			0.21,
			0.21,
			1.0],
			"metallicFactor":0.0,
			"roughnessFactor":0.5
		},
		"emissiveFactor":[0.0,
		0.0,
		0.0],
		"alphaMode":"OPAQUE",
		"doubleSided":false,
		"name":"Mat_c_4"
	},
	{
		"pbrMetallicRoughness":{
			"baseColorFactor":[0.52,
			0.025999999999999969,
			0.025999999999999969,
			1.0],
			"metallicFactor":0.0,
			"roughnessFactor":0.5
		},
		"emissiveFactor":[0.0,
		0.0,
		0.0],
		"alphaMode":"OPAQUE",
		"doubleSided":false,
		"name":"Mat_c_5"
	}]
}